<?xml version="1.0" encoding="UTF-8"?>
<svg xmlns="http://www.w3.org/2000/svg" viewBox="0 0 512 512" role="img" aria-label="BIO-IGNICIÓN — Mono">
  <rect width="512" height="512" rx="112" fill="#0B1320"/>
  <g fill="none" stroke="#A5F3FC" stroke-width="16"
     stroke-linecap="round" stroke-linejoin="round">
    <path d="M 150 215
             C 168 148, 268 122, 358 156
             C 420 180, 444 242, 420 298
             C 410 328, 390 348, 372 360
             C 370 376, 354 382, 338 374
             C 326 368, 316 368, 308 374
             C 275 388, 226 392, 184 376
             C 142 360, 112 324, 108 282
             C 104 246, 118 216, 150 215"/>
    <path d="M 188 212 C 224 196, 306 194, 352 218"/>
    <path d="M 162 276 C 212 262, 322 266, 392 288"/>
    <path d="M 156 332 C 208 324, 292 334, 366 340"/>
    <path d="M 314 372 L 288 418 L 316 422 L 286 476"/>
  </g>
</svg>
