<?xml version="1.0" encoding="UTF-8"?>
<svg xmlns="http://www.w3.org/2000/svg" viewBox="0 0 540 1080" role="img" aria-label="Dashboard neural — vista narrow">
  <defs>
    <linearGradient id="bg" x1="0" y1="0" x2="0" y2="1">
      <stop offset="0%" stop-color="#0B0E14"/>
      <stop offset="100%" stop-color="#052E16"/>
    </linearGradient>
    <radialGradient id="orb" cx="50%" cy="50%" r="50%">
      <stop offset="0%" stop-color="#34D399"/>
      <stop offset="70%" stop-color="#059669"/>
      <stop offset="100%" stop-color="#064E3B" stop-opacity="0"/>
    </radialGradient>
  </defs>
  <rect width="540" height="1080" fill="url(#bg)"/>
  <g font-family="system-ui,Manrope,sans-serif" fill="#ECFDF5">
    <text x="30" y="60" font-size="13" font-weight="700" letter-spacing="4">BIO-IGN · DASHBOARD</text>
    <rect x="24" y="110" width="492" height="140" rx="20" fill="#064E3B" opacity="0.45"/>
    <text x="48" y="150" font-size="13" fill="#A7F3D0">Racha actual</text>
    <text x="48" y="205" font-size="60" font-weight="800">14</text>
    <text x="140" y="205" font-size="18" fill="#6EE7B7">días</text>
    <circle cx="270" cy="500" r="160" fill="url(#orb)"/>
    <text x="270" y="505" text-anchor="middle" font-size="48" font-weight="800">82</text>
    <text x="270" y="545" text-anchor="middle" font-size="14" fill="#A7F3D0">Coherencia</text>
    <g font-size="13" fill="#A7F3D0">
      <rect x="24" y="720" width="156" height="96" rx="16" fill="#064E3B" opacity="0.45"/>
      <text x="42" y="760">Resiliencia</text>
      <text x="42" y="795" font-size="28" font-weight="700" fill="#ECFDF5">74</text>
      <rect x="192" y="720" width="156" height="96" rx="16" fill="#064E3B" opacity="0.45"/>
      <text x="210" y="760">Capacidad</text>
      <text x="210" y="795" font-size="28" font-weight="700" fill="#ECFDF5">79</text>
      <rect x="360" y="720" width="156" height="96" rx="16" fill="#064E3B" opacity="0.45"/>
      <text x="378" y="760">Sesiones</text>
      <text x="378" y="795" font-size="28" font-weight="700" fill="#ECFDF5">87</text>
    </g>
    <rect x="24" y="900" width="492" height="96" rx="20" fill="#059669"/>
    <text x="270" y="958" text-anchor="middle" font-size="20" font-weight="800">IGNICIÓN · 2 min</text>
  </g>
</svg>
